{
	"asset":{
		"generator":"Khronos glTF Blender I/O v4.0.44",
		"version":"2.0"
	},
	"scene":0,
	"scenes":[
		{
			"name":"Scene",
			"nodes":[
				0,
				1,
				2,
				3,
				4,
				5,
				6,
				7,
				8,
				9,
				10,
				11
			]
		}
	],
	"nodes":[
		{
			"mesh":0,
			"name":"Plane",
			"scale":[
				8.892066955566406,
				8.892066955566406,
				8.892066955566406
			],
			"translation":[
				0,
				-0.30996283888816833,
				0
			]
		},
		{
			"mesh":1,
			"name":"Cube",
			"scale":[
				1,
				0.4274078607559204,
				1
			],
			"translation":[
				-1.0492538213729858,
				1.1401958465576172,
				-0.03936709463596344
			]
		},
		{
			"mesh":2,
			"name":"Cube.003",
			"translation":[
				-1.712482213973999,
				0.3993898630142212,
				-1.2808164358139038
			]
		},
		{
			"mesh":3,
			"name":"Cube.001",
			"translation":[
				-1.712482213973999,
				0.3993898630142212,
				1.1849862337112427
			]
		},
		{
			"mesh":4,
			"name":"Cube.002",
			"translation":[
				-0.38474249839782715,
				0.3993898630142212,
				1.1849862337112427
			]
		},
		{
			"mesh":5,
			"name":"Cube.004",
			"translation":[
				-0.38474249839782715,
				0.3993898630142212,
				-1.2589308023452759
			]
		},
		{
			"mesh":6,
			"name":"Cube.007",
			"rotation":[
				0,
				0.1417257934808731,
				0,
				0.9899059534072876
			],
			"translation":[
				0.7634291648864746,
				0.5961827039718628,
				-0.2201913595199585
			]
		},
		{
			"mesh":7,
			"name":"Cube.008",
			"rotation":[
				0.10021530091762543,
				0.10021527856588364,
				0.6999691724777222,
				0.6999693512916565
			],
			"scale":[
				1,
				1.246588110923767,
				1
			],
			"translation":[
				1.1906591653823853,
				1.226494312286377,
				-0.3450855314731598
			]
		},
		{
			"mesh":8,
			"name":"Cube.010",
			"rotation":[
				0,
				0.1417257934808731,
				0,
				0.9899059534072876
			],
			"scale":[
				1.082870602607727,
				8.06773567199707,
				1.082870602607727
			],
			"translation":[
				1.3190301656723022,
				0.3978855609893799,
				0.10013925284147263
			]
		},
		{
			"mesh":9,
			"name":"Cube.011",
			"rotation":[
				0,
				0.1417257934808731,
				0,
				0.9899059534072876
			],
			"scale":[
				1.082870602607727,
				8.06773567199707,
				1.082870602607727
			],
			"translation":[
				1.066806435585022,
				0.3978855609893799,
				-0.7626535296440125
			]
		},
		{
			"mesh":10,
			"name":"Cube.012",
			"rotation":[
				0,
				0.1417257934808731,
				0,
				0.9899059534072876
			],
			"scale":[
				1.082870602607727,
				8.06773567199707,
				1.082870602607727
			],
			"translation":[
				0.49313294887542725,
				0.3978855609893799,
				0.3415772318840027
			]
		},
		{
			"mesh":11,
			"name":"Cube.013",
			"rotation":[
				0,
				0.1417257934808731,
				0,
				0.9899059534072876
			],
			"scale":[
				1.082870602607727,
				8.06773567199707,
				1.082870602607727
			],
			"translation":[
				0.24090921878814697,
				0.3978855609893799,
				-0.521215558052063
			]
		}
	],
	"materials":[
		{
			"doubleSided":true,
			"name":"floor",
			"pbrMetallicRoughness":{
				"baseColorFactor":[
					0.43558070063591003,
					0.7232057452201843,
					0.7999992966651917,
					1
				],
				"metallicFactor":0
			}
		},
		{
			"doubleSided":true,
			"name":"wood",
			"pbrMetallicRoughness":{
				"baseColorFactor":[
					0.7999992966651917,
					0.6884672045707703,
					0.3227103054523468,
					1
				],
				"metallicFactor":0,
				"roughnessFactor":0.0889328122138977
			}
		},
		{
			"doubleSided":true,
			"name":"accent",
			"pbrMetallicRoughness":{
				"baseColorFactor":[
					0.7771117091178894,
					0.7999992966651917,
					0.35175803303718567,
					1
				],
				"roughnessFactor":0.5
			}
		}
	],
	"meshes":[
		{
			"name":"Plane.001",
			"primitives":[
				{
					"attributes":{
						"POSITION":0,
						"NORMAL":1,
						"TEXCOORD_0":2
					},
					"indices":3,
					"material":0
				}
			]
		},
		{
			"name":"Cube.001",
			"primitives":[
				{
					"attributes":{
						"POSITION":4,
						"NORMAL":5,
						"TEXCOORD_0":6
					},
					"indices":7,
					"material":1
				},
				{
					"attributes":{
						"POSITION":8,
						"NORMAL":9,
						"TEXCOORD_0":10
					},
					"indices":11,
					"material":2
				}
			]
		},
		{
			"name":"Cube.004",
			"primitives":[
				{
					"attributes":{
						"POSITION":12,
						"NORMAL":13,
						"TEXCOORD_0":14
					},
					"indices":15,
					"material":1
				}
			]
		},
		{
			"name":"Cube.007",
			"primitives":[
				{
					"attributes":{
						"POSITION":16,
						"NORMAL":17,
						"TEXCOORD_0":18
					},
					"indices":15,
					"material":1
				}
			]
		},
		{
			"name":"Cube.008",
			"primitives":[
				{
					"attributes":{
						"POSITION":19,
						"NORMAL":20,
						"TEXCOORD_0":21
					},
					"indices":15,
					"material":1
				}
			]
		},
		{
			"name":"Cube.009",
			"primitives":[
				{
					"attributes":{
						"POSITION":22,
						"NORMAL":23,
						"TEXCOORD_0":24
					},
					"indices":15,
					"material":1
				}
			]
		},
		{
			"name":"Cube.011",
			"primitives":[
				{
					"attributes":{
						"POSITION":25,
						"NORMAL":26,
						"TEXCOORD_0":27
					},
					"indices":28,
					"material":2
				}
			]
		},
		{
			"name":"Cube.012",
			"primitives":[
				{
					"attributes":{
						"POSITION":29,
						"NORMAL":30,
						"TEXCOORD_0":31
					},
					"indices":32,
					"material":2
				}
			]
		},
		{
			"name":"Cube.014",
			"primitives":[
				{
					"attributes":{
						"POSITION":33,
						"NORMAL":34,
						"TEXCOORD_0":35
					},
					"indices":36,
					"material":1
				}
			]
		},
		{
			"name":"Cube.015",
			"primitives":[
				{
					"attributes":{
						"POSITION":37,
						"NORMAL":38,
						"TEXCOORD_0":39
					},
					"indices":36,
					"material":1
				}
			]
		},
		{
			"name":"Cube.016",
			"primitives":[
				{
					"attributes":{
						"POSITION":40,
						"NORMAL":41,
						"TEXCOORD_0":42
					},
					"indices":43,
					"material":1
				}
			]
		},
		{
			"name":"Cube.017",
			"primitives":[
				{
					"attributes":{
						"POSITION":44,
						"NORMAL":45,
						"TEXCOORD_0":46
					},
					"indices":47,
					"material":1
				}
			]
		}
	],
	"accessors":[
		{
			"bufferView":0,
			"componentType":5126,
			"count":4,
			"max":[
				1,
				0,
				1
			],
			"min":[
				-1,
				0,
				-1
			],
			"type":"VEC3"
		},
		{
			"bufferView":1,
			"componentType":5126,
			"count":4,
			"type":"VEC3"
		},
		{
			"bufferView":2,
			"componentType":5126,
			"count":4,
			"type":"VEC2"
		},
		{
			"bufferView":3,
			"componentType":5123,
			"count":6,
			"type":"SCALAR"
		},
		{
			"bufferView":4,
			"componentType":5126,
			"count":884,
			"max":[
				1.290598750114441,
				0.2500030994415283,
				2.047405481338501
			],
			"min":[
				-1.290598750114441,
				-0.2500030994415283,
				-2.047405481338501
			],
			"type":"VEC3"
		},
		{
			"bufferView":5,
			"componentType":5126,
			"count":884,
			"type":"VEC3"
		},
		{
			"bufferView":6,
			"componentType":5126,
			"count":884,
			"type":"VEC2"
		},
		{
			"bufferView":7,
			"componentType":5123,
			"count":1326,
			"type":"SCALAR"
		},
		{
			"bufferView":8,
			"componentType":5126,
			"count":20,
			"max":[
				0.7344983816146851,
				0.3271034359931946,
				1.4913052320480347
			],
			"min":[
				-0.7344983816146851,
				0.2076892852783203,
				-1.4913052320480347
			],
			"type":"VEC3"
		},
		{
			"bufferView":9,
			"componentType":5126,
			"count":20,
			"type":"VEC3"
		},
		{
			"bufferView":10,
			"componentType":5126,
			"count":20,
			"type":"VEC2"
		},
		{
			"bufferView":11,
			"componentType":5123,
			"count":30,
			"type":"SCALAR"
		},
		{
			"bufferView":12,
			"componentType":5126,
			"count":864,
			"max":[
				0.23980551958084106,
				0.6732046604156494,
				0.23980551958084106
			],
			"min":[
				-0.23980551958084106,
				-0.6732046604156494,
				-0.23980551958084106
			],
			"type":"VEC3"
		},
		{
			"bufferView":13,
			"componentType":5126,
			"count":864,
			"type":"VEC3"
		},
		{
			"bufferView":14,
			"componentType":5126,
			"count":864,
			"type":"VEC2"
		},
		{
			"bufferView":15,
			"componentType":5123,
			"count":1284,
			"type":"SCALAR"
		},
		{
			"bufferView":16,
			"componentType":5126,
			"count":864,
			"max":[
				0.23980551958084106,
				0.6732046604156494,
				0.23980551958084106
			],
			"min":[
				-0.23980551958084106,
				-0.6732046604156494,
				-0.23980551958084106
			],
			"type":"VEC3"
		},
		{
			"bufferView":17,
			"componentType":5126,
			"count":864,
			"type":"VEC3"
		},
		{
			"bufferView":18,
			"componentType":5126,
			"count":864,
			"type":"VEC2"
		},
		{
			"bufferView":19,
			"componentType":5126,
			"count":864,
			"max":[
				0.23980551958084106,
				0.6732046604156494,
				0.23980551958084106
			],
			"min":[
				-0.23980551958084106,
				-0.6732046604156494,
				-0.23980551958084106
			],
			"type":"VEC3"
		},
		{
			"bufferView":20,
			"componentType":5126,
			"count":864,
			"type":"VEC3"
		},
		{
			"bufferView":21,
			"componentType":5126,
			"count":864,
			"type":"VEC2"
		},
		{
			"bufferView":22,
			"componentType":5126,
			"count":864,
			"max":[
				0.23980551958084106,
				0.6732046604156494,
				0.23980551958084106
			],
			"min":[
				-0.23980551958084106,
				-0.6732046604156494,
				-0.23980551958084106
			],
			"type":"VEC3"
		},
		{
			"bufferView":23,
			"componentType":5126,
			"count":864,
			"type":"VEC3"
		},
		{
			"bufferView":24,
			"componentType":5126,
			"count":864,
			"type":"VEC2"
		},
		{
			"bufferView":25,
			"componentType":5126,
			"count":936,
			"max":[
				0.556938886642456,
				0.07495509833097458,
				0.6459710597991943
			],
			"min":[
				-0.556938886642456,
				-0.07495509833097458,
				-0.6459710597991943
			],
			"type":"VEC3"
		},
		{
			"bufferView":26,
			"componentType":5126,
			"count":936,
			"type":"VEC3"
		},
		{
			"bufferView":27,
			"componentType":5126,
			"count":936,
			"type":"VEC2"
		},
		{
			"bufferView":28,
			"componentType":5123,
			"count":1404,
			"type":"SCALAR"
		},
		{
			"bufferView":29,
			"componentType":5126,
			"count":1176,
			"max":[
				0.33881697058677673,
				0.07495509833097458,
				0.6459710597991943
			],
			"min":[
				-0.33881697058677673,
				-0.07495509833097458,
				-0.6459710597991943
			],
			"type":"VEC3"
		},
		{
			"bufferView":30,
			"componentType":5126,
			"count":1176,
			"type":"VEC3"
		},
		{
			"bufferView":31,
			"componentType":5126,
			"count":1176,
			"type":"VEC2"
		},
		{
			"bufferView":32,
			"componentType":5123,
			"count":1764,
			"type":"SCALAR"
		},
		{
			"bufferView":33,
			"componentType":5126,
			"count":57624,
			"max":[
				0.08481398224830627,
				0.08481398224830627,
				0.08481398224830627
			],
			"min":[
				-0.08481398224830627,
				-0.08481398224830627,
				-0.08481398224830627
			],
			"type":"VEC3"
		},
		{
			"bufferView":34,
			"componentType":5126,
			"count":57624,
			"type":"VEC3"
		},
		{
			"bufferView":35,
			"componentType":5126,
			"count":57624,
			"type":"VEC2"
		},
		{
			"bufferView":36,
			"componentType":5123,
			"count":86436,
			"type":"SCALAR"
		},
		{
			"bufferView":37,
			"componentType":5126,
			"count":57624,
			"max":[
				0.08481398224830627,
				0.08481398224830627,
				0.08481398224830627
			],
			"min":[
				-0.08481398224830627,
				-0.08481398224830627,
				-0.08481398224830627
			],
			"type":"VEC3"
		},
		{
			"bufferView":38,
			"componentType":5126,
			"count":57624,
			"type":"VEC3"
		},
		{
			"bufferView":39,
			"componentType":5126,
			"count":57624,
			"type":"VEC2"
		},
		{
			"bufferView":40,
			"componentType":5126,
			"count":57624,
			"max":[
				0.08481398224830627,
				0.026373252272605896,
				0.08481398224830627
			],
			"min":[
				-0.08481398224830627,
				-0.08481398224830627,
				-0.08481398224830627
			],
			"type":"VEC3"
		},
		{
			"bufferView":41,
			"componentType":5126,
			"count":57624,
			"type":"VEC3"
		},
		{
			"bufferView":42,
			"componentType":5126,
			"count":57624,
			"type":"VEC2"
		},
		{
			"bufferView":43,
			"componentType":5123,
			"count":86436,
			"type":"SCALAR"
		},
		{
			"bufferView":44,
			"componentType":5126,
			"count":57624,
			"max":[
				0.08481398224830627,
				0.026481837034225464,
				0.08481398224830627
			],
			"min":[
				-0.08481398224830627,
				-0.08481398224830627,
				-0.08481398224830627
			],
			"type":"VEC3"
		},
		{
			"bufferView":45,
			"componentType":5126,
			"count":57624,
			"type":"VEC3"
		},
		{
			"bufferView":46,
			"componentType":5126,
			"count":57624,
			"type":"VEC2"
		},
		{
			"bufferView":47,
			"componentType":5123,
			"count":86436,
			"type":"SCALAR"
		}
	],
	"bufferViews":[
		{
			"buffer":0,
			"byteLength":48,
			"byteOffset":0,
			"target":34962
		},
		{
			"buffer":0,
			"byteLength":48,
			"byteOffset":48,
			"target":34962
		},
		{
			"buffer":0,
			"byteLength":32,
			"byteOffset":96,
			"target":34962
		},
		{
			"buffer":0,
			"byteLength":12,
			"byteOffset":128,
			"target":34963
		},
		{
			"buffer":0,
			"byteLength":10608,
			"byteOffset":140,
			"target":34962
		},
		{
			"buffer":0,
			"byteLength":10608,
			"byteOffset":10748,
			"target":34962
		},
		{
			"buffer":0,
			"byteLength":7072,
			"byteOffset":21356,
			"target":34962
		},
		{
			"buffer":0,
			"byteLength":2652,
			"byteOffset":28428,
			"target":34963
		},
		{
			"buffer":0,
			"byteLength":240,
			"byteOffset":31080,
			"target":34962
		},
		{
			"buffer":0,
			"byteLength":240,
			"byteOffset":31320,
			"target":34962
		},
		{
			"buffer":0,
			"byteLength":160,
			"byteOffset":31560,
			"target":34962
		},
		{
			"buffer":0,
			"byteLength":60,
			"byteOffset":31720,
			"target":34963
		},
		{
			"buffer":0,
			"byteLength":10368,
			"byteOffset":31780,
			"target":34962
		},
		{
			"buffer":0,
			"byteLength":10368,
			"byteOffset":42148,
			"target":34962
		},
		{
			"buffer":0,
			"byteLength":6912,
			"byteOffset":52516,
			"target":34962
		},
		{
			"buffer":0,
			"byteLength":2568,
			"byteOffset":59428,
			"target":34963
		},
		{
			"buffer":0,
			"byteLength":10368,
			"byteOffset":61996,
			"target":34962
		},
		{
			"buffer":0,
			"byteLength":10368,
			"byteOffset":72364,
			"target":34962
		},
		{
			"buffer":0,
			"byteLength":6912,
			"byteOffset":82732,
			"target":34962
		},
		{
			"buffer":0,
			"byteLength":10368,
			"byteOffset":89644,
			"target":34962
		},
		{
			"buffer":0,
			"byteLength":10368,
			"byteOffset":100012,
			"target":34962
		},
		{
			"buffer":0,
			"byteLength":6912,
			"byteOffset":110380,
			"target":34962
		},
		{
			"buffer":0,
			"byteLength":10368,
			"byteOffset":117292,
			"target":34962
		},
		{
			"buffer":0,
			"byteLength":10368,
			"byteOffset":127660,
			"target":34962
		},
		{
			"buffer":0,
			"byteLength":6912,
			"byteOffset":138028,
			"target":34962
		},
		{
			"buffer":0,
			"byteLength":11232,
			"byteOffset":144940,
			"target":34962
		},
		{
			"buffer":0,
			"byteLength":11232,
			"byteOffset":156172,
			"target":34962
		},
		{
			"buffer":0,
			"byteLength":7488,
			"byteOffset":167404,
			"target":34962
		},
		{
			"buffer":0,
			"byteLength":2808,
			"byteOffset":174892,
			"target":34963
		},
		{
			"buffer":0,
			"byteLength":14112,
			"byteOffset":177700,
			"target":34962
		},
		{
			"buffer":0,
			"byteLength":14112,
			"byteOffset":191812,
			"target":34962
		},
		{
			"buffer":0,
			"byteLength":9408,
			"byteOffset":205924,
			"target":34962
		},
		{
			"buffer":0,
			"byteLength":3528,
			"byteOffset":215332,
			"target":34963
		},
		{
			"buffer":0,
			"byteLength":691488,
			"byteOffset":218860,
			"target":34962
		},
		{
			"buffer":0,
			"byteLength":691488,
			"byteOffset":910348,
			"target":34962
		},
		{
			"buffer":0,
			"byteLength":460992,
			"byteOffset":1601836,
			"target":34962
		},
		{
			"buffer":0,
			"byteLength":172872,
			"byteOffset":2062828,
			"target":34963
		},
		{
			"buffer":0,
			"byteLength":691488,
			"byteOffset":2235700,
			"target":34962
		},
		{
			"buffer":0,
			"byteLength":691488,
			"byteOffset":2927188,
			"target":34962
		},
		{
			"buffer":0,
			"byteLength":460992,
			"byteOffset":3618676,
			"target":34962
		},
		{
			"buffer":0,
			"byteLength":691488,
			"byteOffset":4079668,
			"target":34962
		},
		{
			"buffer":0,
			"byteLength":691488,
			"byteOffset":4771156,
			"target":34962
		},
		{
			"buffer":0,
			"byteLength":460992,
			"byteOffset":5462644,
			"target":34962
		},
		{
			"buffer":0,
			"byteLength":172872,
			"byteOffset":5923636,
			"target":34963
		},
		{
			"buffer":0,
			"byteLength":691488,
			"byteOffset":6096508,
			"target":34962
		},
		{
			"buffer":0,
			"byteLength":691488,
			"byteOffset":6787996,
			"target":34962
		},
		{
			"buffer":0,
			"byteLength":460992,
			"byteOffset":7479484,
			"target":34962
		},
		{
			"buffer":0,
			"byteLength":172872,
			"byteOffset":7940476,
			"target":34963
		}
	],
	"buffers":[
		{
			"byteLength":8113348,
			"uri":"desk.bin"
		}
	]
}
